# xmcd
#
# Track frame offsets: 
#        150
#        13048
#        27697
#        38704
#        53860
#        66170
#        86585
#        99107
#        112191
#        124857
#        138361
#        149408
#        168627
#        179140
#        190422
#        201023
#        213452
#        226039
#
# Disc length: 3226 seconds
#
# Revision: 0
# Processed by: cddbd v1.5.2PL0 Copyright (c) Steve Scherf et al.
# Submitted via: ExactAudioCopy v1.3
#
DISCID=0c0c9812
DTITLE=Aretha Franklin - The Atlantic Singles Collection 1967-1970 [CD
DTITLE=1)
DYEAR=2018
DGENRE=Soul
TTITLE0=I Never Loved A Man (The Way I Love You)
TTITLE1=Do Right Woman - Do Right Man
TTITLE2=Respect
TTITLE3=Dr. Feelgood
TTITLE4=Baby I Love You
TTITLE5=Going Down Slow
TTITLE6=A Natural Woman (You Make Me Feel)
TTITLE7=Baby, Baby, Baby
TTITLE8=Chain Of Fools
TTITLE9=Prove It
TTITLE10=(Sweet Sweet Baby) Since You've Been Gone
TTITLE11=Ain't No Way
TTITLE12=Think
TTITLE13=You Send Me
TTITLE14=The House That Jack Built
TTITLE15=I Say A Little Prayer
TTITLE16=See Saw
TTITLE17=My Song
EXTD=
EXTT0=
EXTT1=
EXTT2=
EXTT3=
EXTT4=
EXTT5=
EXTT6=
EXTT7=
EXTT8=
EXTT9=
EXTT10=
EXTT11=
EXTT12=
EXTT13=
EXTT14=
EXTT15=
EXTT16=
EXTT17=
PLAYORDER=
